<svg width="21" height="20" viewBox="0 0 21 20" fill="none" xmlns="http://www.w3.org/2000/svg">
<g clip-path="url(#clip0_679_1829)">
<mask id="mask0_679_1829" style="mask-type:alpha" maskUnits="userSpaceOnUse" x="0" y="0" width="20" height="20">
<path d="M0.350586 0H19.646V20H0.350586V0Z" fill="white"/>
</mask>
<g mask="url(#mask0_679_1829)">
<path fill-rule="evenodd" clip-rule="evenodd" d="M18.2889 10.0388C18.2889 10.1247 18.2166 10.1971 18.1306 10.1971H17.9442H16.5871H3.40953H2.05241H1.86603C1.78008 10.1971 1.7077 10.1247 1.7077 10.0388V7.52904C1.7077 7.44218 1.78008 7.3698 1.86603 7.3698H9.31931H14.8817H18.1306C18.2166 7.3698 18.2889 7.44218 18.2889 7.52904V10.0388ZM16.5871 18.5732C16.5871 18.6094 16.5536 18.6429 16.5175 18.6429H10.6764V11.5542H16.5871V18.5732ZM9.31931 18.6429H3.47919C3.4421 18.6429 3.40953 18.6094 3.40953 18.5732V11.5542H9.31931V18.6429ZM7.02941 1.35687C8.26167 1.35687 9.26322 2.35933 9.26322 3.59069V5.8245H7.02941C5.79805 5.8245 4.79559 4.82204 4.79559 3.59069C4.79559 2.35933 5.79805 1.35687 7.02941 1.35687ZM10.6764 4.93423C10.6764 3.85125 11.5577 2.97094 12.6406 2.97094C13.7245 2.97094 14.6048 3.85125 14.6048 4.93423C14.6048 5.33503 14.48 5.70326 14.2719 6.01268H10.6764V4.93423ZM18.1306 6.01268H15.7692C15.8887 5.67431 15.9619 5.31422 15.9619 4.93423C15.9619 3.10303 14.4718 1.61291 12.6406 1.61291C11.7866 1.61291 11.0148 1.94677 10.4258 2.47875C9.95444 1.04474 8.61904 -0.000244141 7.02941 -0.000244141C5.04983 -0.000244141 3.43848 1.61111 3.43848 3.59069C3.43848 4.53071 3.81123 5.37665 4.40655 6.01268H1.86603C1.03005 6.01268 0.350586 6.69305 0.350586 7.52904V10.0388C0.350586 10.8748 1.03005 11.5542 1.86603 11.5542H2.05241V18.5732C2.05241 19.3604 2.69206 20 3.47919 20H16.5175C17.3046 20 17.9442 19.3604 17.9442 18.5732V11.5542H18.1306C18.9666 11.5542 19.6461 10.8748 19.6461 10.0388V7.52904C19.6461 6.69305 18.9666 6.01268 18.1306 6.01268Z" fill="white"/>
</g>
</g>
<defs>
<clipPath id="clip0_679_1829">
<rect width="20" height="20" fill="white" transform="translate(0.350586)"/>
</clipPath>
</defs>
</svg>
