<svg width="21" height="20" viewBox="0 0 21 20" fill="none" xmlns="http://www.w3.org/2000/svg">
<g clip-path="url(#clip0_369_1484)">
<mask id="mask0_369_1484" style="mask-type:alpha" maskUnits="userSpaceOnUse" x="0" y="0" width="20" height="20">
<path d="M0.566895 0H19.8623V20H0.566895V0Z" fill="white"/>
</mask>
<g mask="url(#mask0_369_1484)">
<path fill-rule="evenodd" clip-rule="evenodd" d="M18.5053 10.0388C18.5053 10.1247 18.4329 10.1971 18.3469 10.1971H18.1605H16.8034H3.62583H2.26872H2.08234C1.99639 10.1971 1.92401 10.1247 1.92401 10.0388V7.52904C1.92401 7.44218 1.99639 7.3698 2.08234 7.3698H9.53562H15.098H18.3469C18.4329 7.3698 18.5053 7.44218 18.5053 7.52904V10.0388ZM16.8034 18.5732C16.8034 18.6094 16.77 18.6429 16.7338 18.6429H10.8927V11.5542H16.8034V18.5732ZM9.53562 18.6429H3.6955C3.6584 18.6429 3.62583 18.6094 3.62583 18.5732V11.5542H9.53562V18.6429ZM7.24571 1.35687C8.47798 1.35687 9.47953 2.35933 9.47953 3.59069V5.8245H7.24571C6.01436 5.8245 5.0119 4.82204 5.0119 3.59069C5.0119 2.35933 6.01436 1.35687 7.24571 1.35687ZM10.8927 4.93423C10.8927 3.85125 11.774 2.97094 12.8569 2.97094C13.9408 2.97094 14.8211 3.85125 14.8211 4.93423C14.8211 5.33503 14.6963 5.70326 14.4882 6.01268H10.8927V4.93423ZM18.3469 6.01268H15.9855C16.105 5.67431 16.1783 5.31422 16.1783 4.93423C16.1783 3.10303 14.6881 1.61291 12.8569 1.61291C12.0029 1.61291 11.2311 1.94677 10.6421 2.47875C10.1708 1.04474 8.83535 -0.000244141 7.24571 -0.000244141C5.26613 -0.000244141 3.65479 1.61111 3.65479 3.59069C3.65479 4.53071 4.02754 5.37665 4.62286 6.01268H2.08234C1.24636 6.01268 0.566895 6.69305 0.566895 7.52904V10.0388C0.566895 10.8748 1.24636 11.5542 2.08234 11.5542H2.26872V18.5732C2.26872 19.3604 2.90837 20 3.6955 20H16.7338C17.5209 20 18.1605 19.3604 18.1605 18.5732V11.5542H18.3469C19.1829 11.5542 19.8624 10.8748 19.8624 10.0388V7.52904C19.8624 6.69305 19.1829 6.01268 18.3469 6.01268Z" fill="white"/>
</g>
</g>
<defs>
<clipPath id="clip0_369_1484">
<rect width="20" height="20" fill="white" transform="translate(0.566772)"/>
</clipPath>
</defs>
</svg>
