<svg width="21" height="20" viewBox="0 0 21 20" fill="none" xmlns="http://www.w3.org/2000/svg">
<g clip-path="url(#clip0_679_1834)">
<path d="M10.3508 20C11.4925 20 12.4308 19.1301 12.5395 18.017H8.16211C8.27086 19.1301 9.20918 20 10.3508 20Z" fill="white"/>
<path d="M18.0035 13.5882C17.3326 13.5882 16.7888 13.0444 16.7888 12.3735V8.35574C16.7888 5.50652 14.9378 3.08996 12.3728 2.24203C12.3799 2.17324 12.3835 2.10352 12.3835 2.03289C12.3835 0.911953 11.4716 0 10.3506 0C9.22969 0 8.31774 0.911953 8.31774 2.03289C8.31774 2.10352 8.32141 2.17324 8.32844 2.24203C5.76348 3.08996 3.9125 5.50652 3.9125 8.35574V12.3735C3.9125 13.0444 3.36863 13.5882 2.69777 13.5882C1.7984 13.5882 1.06934 14.3173 1.06934 15.2167C1.06934 16.1161 1.79844 16.8452 2.69777 16.8452H18.0035C18.9029 16.8452 19.632 16.1161 19.632 15.2167C19.632 14.3173 18.9029 13.5882 18.0035 13.5882ZM10.3506 1.17188C10.8059 1.17188 11.1795 1.52703 11.2095 1.97477C10.9285 1.9373 10.6419 1.91762 10.3506 1.91762C10.0594 1.91762 9.77278 1.9373 9.4918 1.97477C9.5218 1.52703 9.89539 1.17188 10.3506 1.17188Z" fill="white"/>
</g>
<defs>
<clipPath id="clip0_679_1834">
<rect width="20" height="20" fill="white" transform="translate(0.350586)"/>
</clipPath>
</defs>
</svg>
