<svg width="21" height="20" viewBox="0 0 21 20" fill="none" xmlns="http://www.w3.org/2000/svg">
<g clip-path="url(#clip0_369_1485)">
<path d="M10.5668 20C11.7084 20 12.6467 19.1301 12.7555 18.017H8.37805C8.4868 19.1301 9.42512 20 10.5668 20Z" fill="white"/>
<path d="M18.2197 13.5882C17.5488 13.5882 17.005 13.0444 17.005 12.3735V8.35574C17.005 5.50652 15.154 3.08996 12.589 2.24203C12.5961 2.17324 12.5997 2.10352 12.5997 2.03289C12.5997 0.911953 11.6878 0 10.5668 0C9.44588 0 8.53392 0.911953 8.53392 2.03289C8.53392 2.10352 8.5376 2.17324 8.54463 2.24203C5.97966 3.08996 4.12869 5.50652 4.12869 8.35574V12.3735C4.12869 13.0444 3.58482 13.5882 2.91396 13.5882C2.01459 13.5882 1.28552 14.3173 1.28552 15.2167C1.28552 16.1161 2.01462 16.8452 2.91396 16.8452H18.2197C19.1191 16.8452 19.8481 16.1161 19.8481 15.2167C19.8481 14.3173 19.119 13.5882 18.2197 13.5882ZM10.5668 1.17188C11.0221 1.17188 11.3956 1.52703 11.4256 1.97477C11.1447 1.9373 10.8581 1.91762 10.5668 1.91762C10.2756 1.91762 9.98896 1.9373 9.70799 1.97477C9.73799 1.52703 10.1116 1.17188 10.5668 1.17188V1.17188Z" fill="white"/>
</g>
<defs>
<clipPath id="clip0_369_1485">
<rect width="20" height="20" fill="white" transform="translate(0.566772)"/>
</clipPath>
</defs>
</svg>
