<svg width="21" height="20" viewBox="0 0 21 20" fill="none" xmlns="http://www.w3.org/2000/svg">
<path d="M19.9278 18.2168L15.1678 13.2662C16.3916 11.8113 17.0622 9.98069 17.0622 8.07499C17.0622 3.62251 13.4397 0 8.98722 0C4.53474 0 0.912231 3.62251 0.912231 8.07499C0.912231 12.5275 4.53474 16.15 8.98722 16.15C10.6587 16.15 12.2516 15.6458 13.6135 14.6888L18.4097 19.677C18.6102 19.8852 18.8798 20 19.1687 20C19.4422 20 19.7017 19.8957 19.8986 19.7061C20.3171 19.3034 20.3305 18.6357 19.9278 18.2168ZM8.98722 2.10652C12.2783 2.10652 14.9557 4.78391 14.9557 8.07499C14.9557 11.3661 12.2783 14.0435 8.98722 14.0435C5.69614 14.0435 3.01875 11.3661 3.01875 8.07499C3.01875 4.78391 5.69614 2.10652 8.98722 2.10652Z" fill="white"/>
</svg>
