<svg width="20" height="20" viewBox="0 0 20 20" fill="none" xmlns="http://www.w3.org/2000/svg">
<path d="M19.7118 18.2168L14.9518 13.2662C16.1757 11.8113 16.8463 9.98069 16.8463 8.07499C16.8463 3.62251 13.2238 0 8.77128 0C4.3188 0 0.696289 3.62251 0.696289 8.07499C0.696289 12.5275 4.3188 16.15 8.77128 16.15C10.4428 16.15 12.0357 15.6458 13.3975 14.6888L18.1937 19.677C18.3942 19.8852 18.6638 20 18.9528 20C19.2263 20 19.4857 19.8957 19.6827 19.7061C20.1012 19.3034 20.1145 18.6357 19.7118 18.2168ZM8.77128 2.10652C12.0624 2.10652 14.7398 4.78391 14.7398 8.07499C14.7398 11.3661 12.0624 14.0435 8.77128 14.0435C5.4802 14.0435 2.80281 11.3661 2.80281 8.07499C2.80281 4.78391 5.4802 2.10652 8.77128 2.10652Z" fill="white"/>
</svg>
